<svg xmlns="http://www.w3.org/2000/svg" width="400" height="400" fill="none"><path stroke="#6425FE" stroke-miterlimit="10" stroke-width="2.2" d="M121.383 123.597s37.6-62.604 112.76-38.104c75.04 24.504 57.308 117.524 57.26 117.768.328-1.704 13.328-3.328 14.704-3.528 38.348-5.668 66.872 30 69.7 65.152 3.512 43.6-30.212 74.48-68.62 87.776"/><path fill="#0057FF" d="M302.232 373.117c-1.136 3.996-1.96 6.28-1.96 6.28h-.592a76.752 76.752 0 0 0 2.552-6.28Z"/><path fill="#CEE6FF" d="M197.607 215.403s-1.352 8.208-2.752 15.64c-4 .044-8 .076-11.956.108-2-11.256.172-20.072 2.752-25.948 3.252 7.416 8.164 9.672 11.956 10.2ZM263.353 245.019a106.302 106.302 0 0 0-25.788-9.82l-2.944-.508s-2.192-4.984-2.204-5c-1.028-2.612-2.732-6.08-3.26-8.832a33.465 33.465 0 0 1-.464-9.876c.576-4.896 2.856-15.252 6.976-18.516 3.436-2.704 4.852-2.136 6.8-6.364 1.4-3.016 1.968-8.084-.752-10.308-3.016-2.44-4.304-1.2-7.912-.824-13.712 1.36-21.548-8.508-26.588-19.912-.8-1.852-1.632-3.808-2.94-5.384-1.5-1.816-3.576-2.224-5.276-3.692-.724-.632-1.22-1.664-.872-2.56.206-.429.504-.806.872-1.104a28.119 28.119 0 0 1 11.268-6.34 41.188 41.188 0 0 1 20.4-.636c7.04 2.332 13.368 6.748 17.628 13.496 5.876 9.324 7.292 18.996 4 28.636-3.372 9.872-7.136 21.468-.8 30.968 8.436 12.62 13.52 21.496 11.856 36.576Z"/><path stroke="#0E233C" stroke-miterlimit="10" stroke-width="2.2" d="M194.872 231.041c-4 .044-8 .076-11.956.108-30.144.156-58.996-.264-89.236 5.16M234.141 234.398c1.148.252 2.284.516 3.42.8a113.743 113.743 0 0 1 13.056 4 97.096 97.096 0 0 1 12.732 5.816.025.025 0 0 1 .032 0 83.533 83.533 0 0 1 17.724 12.872 69.359 69.359 0 0 1 11.428 14.596.183.183 0 0 1 .06.08 96.334 96.334 0 0 1 6.612 13.356c5.536 13.636 8.676 29.336 9.156 44.96.436 14.756-1.508 29.448-6.108 42.24a76.608 76.608 0 0 1-2.552 6.28c-.06.156-.14.296-.2.452M251.523 379.65v-.048c.026-.066.046-.134.06-.204M240.969 289.697s8.704 4.228 14.424 17.428c2.876 6.636 5.008 15.56 4.884 27.36v.032c-.064 7.524-1.056 16.212-3.36 26.224v.056"/><path stroke="#0E233C" stroke-miterlimit="10" stroke-width="2.2" d="M76.242 122.122c1.536-5.812 4-11.804 5.852-14.324 2.912-3.92 6.712-7.656 11.6-7.32 3.14.204 6.224 1.94 6.364 5.38.132 3.732-3.804 7.876-5.068 11.384-1.2 3.384-1.748 7.324-1.116 10.884.632 3.56 3.828 6.34 7.276 7.104a5.104 5.104 0 0 0 3.868-.524c3.376-2.136 2.668-7.824 2.532-11.18-.16-3.764-.156-8.02 3.056-10.596 2.36-1.892 5.94-.636 7.68 1.444 3.024 3.6 3.172 9.02 3.324 13.452.452 13.352-1.92 26.152-9.696 37.392-4 5.804-8.12 11.012-9.74 18.132-5.04 22.128-5.6 37.468-8.496 59.94"/><path stroke="#0E233C" stroke-miterlimit="10" stroke-width="2.2" d="M154.738 379.998c-15.456-43.928-8.136-91.92-8.136-91.92l-83.024 2.632a24.752 24.752 0 0 1-18.92-7.898 24.75 24.75 0 0 1-6.472-19.454l20.336-74.16 4.4-15.82a22.924 22.924 0 0 0-.912-15.056l-2.072-4.944s-3.756-7.66 4.664-6.94c4.528.4 9.02 2.324 12.82 4.74 2.984 1.9 7.536 5.576 6.128 9.652-1.664 4.8-8.188 6-12.02 3.3"/><path stroke="#0E233C" stroke-miterlimit="10" stroke-width="2.2" d="M61.803 146.398s-7.112-16 12.4-11.86c19.512 4.14 24.184 25.46 9.292 23.06"/><path stroke="#0E233C" stroke-miterlimit="10" stroke-width="2.2" d="M68.231 133.621s-6.24-7.58 3.088-11.2c9.328-3.62 43.2 13.476 21.472 30.316M203.208 215.042a13.82 13.82 0 0 1-5.564.36c-3.808-.528-8.72-2.8-11.956-10.2a30.055 30.055 0 0 1-1.632-4.68c-1.648-6.124-2.368-14.644-1.404-26.524.188-2.284.468-4.604.856-6.92a62.5 62.5 0 0 1 3.092-11.812s0-.032.032-.048c3.528-9.328 9.732-17.2 20.164-20.228a41.066 41.066 0 0 1 23.896.344c7.04 2.332 13.368 6.748 17.628 13.496 5.876 9.324 7.292 18.996 4 28.636-3.372 9.872-7.136 21.468-.8 30.968 8.424 12.64 13.508 21.516 11.876 36.596M179.715 231.617c-3.064-14.692 1.072-25.404 4.32-31.096"/><path stroke="#0E233C" stroke-miterlimit="10" stroke-width="2.2" d="M183.508 167.062s6.708-7.012 14.48 4.064"/><path stroke="#0E233C" stroke-linecap="round" stroke-linejoin="round" stroke-width="2.2" d="M200.587 202.369c2.836 1.836 6.676.696 8.764-2.132 2.268-3.068 3.176-7.164 3.668-10.88.032-.268.068-.532.092-.8-3.46 5.436-10.176 6.74-16.088 7.308a10.854 10.854 0 0 0 1.924 4.932 6.18 6.18 0 0 0 1.64 1.572Z"/><path stroke="#0E233C" stroke-miterlimit="10" stroke-width="2.2" d="m231.391 226.842-.016-.016M205.008 164.905s2.28-3.692 10.072-.972 7.884 7.164 7.884 7.164M187.289 174.086s3.6-1.82 6.42 0M206.695 175.762s3.6-1.82 6.4 0"/><path stroke="#0E233C" stroke-miterlimit="10" stroke-width="2.2" d="M197.607 215.403s-1.352 8.208-2.752 15.64c-.204 1.056-.4 2.096-.576 3.124-.916 5.004-1.648 9.452-1.68 10.8-.232 11.2 10.356 17.66 20.584 17.552 14.352-.156 22.744-13.508 21.392-26.88-.884-2.44-1.788-4.88-2.672-7.32-1.136-3.128-2.612-6.172-3.252-9.468a32.073 32.073 0 0 1-.184-9.828c.576-4.88 1.524-12.156 5.644-15.42 3.436-2.704 7.024-4.48 8.984-8.708 1.4-3.016 1.336-6.9-1.384-9.124-3.016-2.44-7.788-2.144-11.396-1.788-23.272 2.38-27.144-21.176-33.44-24.484-5.16-2.724-9.032 3.388-10.244 5.656l-.048.096a.096.096 0 0 1-.028.06c-.22.4-.328.668-.328.668"/><path stroke="#0E233C" stroke-miterlimit="10" stroke-width="2.2" d="M197.012 176.799s-2.432 7.96-2.244 9.152c.188 1.192 3.024.36 3.024.36M216.07 185.198c3.726-3.719 3.657-9.828-.152-13.645-3.81-3.816-9.919-3.895-13.644-.175-3.726 3.719-3.658 9.828.152 13.644 3.809 3.816 9.918 3.895 13.644.176ZM191.758 182.245c3.725-3.72 3.657-9.828-.152-13.645-3.81-3.816-9.919-3.895-13.645-.176-3.725 3.719-3.657 9.828.153 13.645 3.809 3.816 9.918 3.895 13.644.176Z"/><path fill="#fff" d="M184.639 167.922a7.606 7.606 0 0 1 7.243 5.193 7.591 7.591 0 0 1 .357 3.131 7.163 7.163 0 0 1-2.319 4.628 7.16 7.16 0 0 1-4.833 1.852 7.605 7.605 0 0 1-5.647-2.475 7.603 7.603 0 0 1-1.953-5.849 7.16 7.16 0 0 1 7.152-6.48Zm0-1.104a8.255 8.255 0 0 0-8.236 7.476 8.74 8.74 0 0 0 8.676 9.536 8.25 8.25 0 0 0 8.248-7.476 8.746 8.746 0 0 0-7.636-9.472 9.26 9.26 0 0 0-1.04-.064h-.012Z"/><path stroke="#0E233C" stroke-miterlimit="10" stroke-width="2.2" d="m199.565 177.114-5.104-.62"/><path fill="#0057FF" d="M215.287 184.415c3.304-3.298 3.244-8.714-.134-12.097-3.377-3.384-8.793-3.453-12.097-.155-3.303 3.298-3.244 8.714.134 12.097 3.378 3.384 8.794 3.453 12.097.155ZM190.973 181.461c3.306-3.299 3.246-8.718-.133-12.103s-8.798-3.454-12.103-.155c-3.305 3.3-3.245 8.718.134 12.103s8.797 3.454 12.102.155Z"/><path fill="#CEE6FF" d="M106.865 42.463c-11.6.592-21.2 9.888-22.124 21.456a23.325 23.325 0 0 0 6.096 17.8 22.96 22.96 0 0 0 5.6 4.492c.545.315 1.06.679 1.54 1.088a22.477 22.477 0 0 0 20.196.032 7.536 7.536 0 0 1 1.508-1.088 23.891 23.891 0 0 0 5.828-4.68c.043-.06.089-.118.14-.172a23.437 23.437 0 0 0 3.545-25.704 23.439 23.439 0 0 0-22.325-13.224h-.004Zm14.52 36.644a.387.387 0 0 0-.108.124 18.564 18.564 0 0 1-4.508 3.6c-.419.23-.806.512-1.152.84a17.405 17.405 0 0 1-15.576 0 8.504 8.504 0 0 0-1.2-.856 18.063 18.063 0 0 1-3.658-28.533 18.06 18.06 0 0 1 26.198 24.833l.004-.008Z"/><path fill="#0057FF" d="M118.164 87.335a8.872 8.872 0 0 0-2.912 6.604v1.072c0 3.744-2.712 7.1-6.4 7.476a7.188 7.188 0 0 1-5.531-1.804 7.179 7.179 0 0 1-2.377-5.308v-1.436a8.963 8.963 0 0 0-2.952-6.632 22.515 22.515 0 0 0 20.188.028h-.016Z"/><path stroke="#0E233C" stroke-miterlimit="10" stroke-width="2.2" d="M118.164 87.335a8.872 8.872 0 0 0-2.912 6.604v1.072c0 3.744-2.712 7.1-6.4 7.476a7.188 7.188 0 0 1-5.531-1.804 7.179 7.179 0 0 1-2.377-5.308v-1.436a8.963 8.963 0 0 0-2.952-6.632 22.515 22.515 0 0 0 20.188.028h-.016Z"/><path stroke="#0E233C" stroke-miterlimit="10" stroke-width="2.2" d="M131.524 65.866a23.327 23.327 0 0 1-5.88 15.532 1.753 1.753 0 0 0-.132.164 23.826 23.826 0 0 1-5.84 4.684 7.993 7.993 0 0 0-1.504 1.088 22.51 22.51 0 0 1-20.188-.028 9.826 9.826 0 0 0-1.544-1.1 23.47 23.47 0 0 1-11.692-22.284 23.43 23.43 0 0 1 46.78 1.944Z"/><path stroke="#0E233C" stroke-miterlimit="10" stroke-width="2.2" d="m101.47 89.71-5.368-17.792-1.344-5.04a.69.69 0 0 1 .51-.665.688.688 0 0 1 .774.32c1.2 2.12 3.096 4.78 4.984 4.713 3.132-.112.56-9.62-2-8.624-2.56.996 2.348 7.28 7.404 8.064 5.056.784 3.672-7.716 0-8.052-3.672-.336-1.14 6.824 5.46 8.052 6.6 1.228 5.368-6.04 3.58-7.492-1.788-1.452-1.232 6.932 2.912 8.276 1.312.428 2.356-.488 2.868-1.628.296-.664.144-4.024-.464-2.988-1.24 2.124-1.484 4.776-2.092 7.12-1.292 4.96-3.268 9.708-4.4 14.712M66.188 379.998c2.831-1.328 264 0 264 0"/><path stroke="#0E233C" stroke-miterlimit="10" stroke-width="2.936" d="m108.068 34.09-.232-14.092M81.194 47.197l-9.757-10.172M135.047 47.83l9.972-9.96"/><path fill="#fff" d="m284.544 360.774.34.032c-.184.032-.4.064-.588.108h-.288l-27.084-.14h-3.06l-45.504-.232h-.516a.323.323 0 0 1-.124 0h-.028a5.333 5.333 0 0 1-.856-.06 12.971 12.971 0 0 0 6.652-2.764c.3-.252.608-.492.888-.764l.032-.032c.065-.053.127-.11.184-.172a13.17 13.17 0 0 0 3.888-8.596v-.732a13.2 13.2 0 0 0-10.556-12.872.023.023 0 0 0-.016-.006.023.023 0 0 0-.016.006c-.296-.076-.636-.124-.948-.172l.668-.044c.109-.008.219-.008.328 0h.528l38.444.2 7.076.032 6.28.032h3.404a13.17 13.17 0 0 1 11.848 13.072c0 .62-.047 1.239-.14 1.852a13.173 13.173 0 0 1-12.572 11.224h-.4 22.84c-.332.012-.548.012-.704.028Z"/><path fill="#CEE6FF" d="M223.381 376.672a9.3 9.3 0 0 0 3.022 2.027 9.307 9.307 0 0 0 3.57.709h-22.312c-4.272 0-6.592-1.04-8.284-2.736a9.35 9.35 0 0 1-2.736-6.592c0-5.112 4.196-9.312 11.02-9.312h22.312a9.313 9.313 0 0 0-9.148 11.132 9.314 9.314 0 0 0 2.556 4.772Z"/><path fill="#0057FF" d="M284.633 360.803a.092.092 0 0 1 .052.003c-.018-.001-.035-.001-.052-.003a.993.993 0 0 1-.18-.029h-21.648a13.125 13.125 0 0 0 7.676-3.004c.326-.267.639-.551.936-.852.247-.241.481-.496.7-.764.167-.186.322-.382.464-.588.092-.112.172-.22.248-.328.148-.198.281-.407.4-.624.182-.254.343-.521.484-.8.149-.267.282-.542.4-.824.06-.124.108-.264.188-.4.108-.28.2-.56.292-.84.128-.4.252-.824.344-1.24.056-.225.097-.453.124-.684a.716.716 0 0 0 .032-.172.518.518 0 0 0 .032-.14c0-.156.044-.296.06-.452v-.092a9.08 9.08 0 0 0 .08-1.308 3.932 3.932 0 0 0-.032-.604v-.14c0-.198-.016-.396-.048-.592a12.497 12.497 0 0 0-.732-3.156 10.295 10.295 0 0 0-.8-1.756 10.755 10.755 0 0 0-1.024-1.6 4.304 4.304 0 0 0-.328-.42c-.048-.048-.092-.112-.156-.172a6.444 6.444 0 0 0-.684-.764c-.184-.184-.4-.372-.588-.572-.188-.2-.5-.436-.764-.624s-.436-.324-.668-.48a8.2 8.2 0 0 0-1.088-.668 7.838 7.838 0 0 0-1.104-.532 13.586 13.586 0 0 0-1.352-.496 2.39 2.39 0 0 0-.484-.124 10.19 10.19 0 0 0-1.304-.28c-.22-.048-.436-.064-.668-.092h-.032a.18.18 0 0 1-.092 0h.124c.232.028.448.044.668.092.44.065.876.158 1.304.28.165.024.327.066.484.124.459.141.91.307 1.352.496.381.148.75.326 1.104.532a8.2 8.2 0 0 1 1.088.668c.232.156.404.292.668.48s.576.424.764.624c.188.2.404.388.588.572.248.236.476.491.684.764.064.06.108.124.156.172.118.133.227.273.328.42.388.502.73 1.037 1.024 1.6.321.559.589 1.147.8 1.756.38 1.016.626 2.077.732 3.156.032.196.048.394.048.592v.14c.026.2.037.402.032.604a9.08 9.08 0 0 1-.08 1.308v.092c-.016.156-.06.296-.06.452a.518.518 0 0 1-.032.14.716.716 0 0 1-.032.172 5.446 5.446 0 0 1-.124.684c-.092.416-.216.84-.344 1.24-.092.28-.184.56-.292.84-.08.136-.128.276-.188.4a8.127 8.127 0 0 1-.4.824 6.078 6.078 0 0 1-.484.8 5.289 5.289 0 0 1-.4.624 5.445 5.445 0 0 1-.248.328 5.847 5.847 0 0 1-.464.588 9.211 9.211 0 0 1-.7.764c-.297.301-.61.585-.936.852a13.125 13.125 0 0 1-7.676 3.004h21.648a.51.51 0 0 1 .156 0h-.156a.993.993 0 0 0 .18.029Z"/><path stroke="#0E233C" stroke-linecap="square" stroke-linejoin="round" stroke-width="2.2" d="M297.135 347.859c0 .248 0 .512-.032.76-.032.42-.076.824-.14 1.228a9.344 9.344 0 0 1-.124.652c-.092.4-.2.84-.324 1.244-.14.446-.307.882-.5 1.308-.062.167-.14.328-.232.48 0 .048-.032.08-.064.124-.092.204-.2.4-.308.592-.172.312-.36.62-.56.916-.236.36-.5.684-.764 1.012-.269.326-.554.637-.856.932a10.8 10.8 0 0 1-1.008.904l-.4.324c-.455.344-.934.655-1.432.932-.232.124-.48.252-.728.376a.143.143 0 0 1-.08.028c-.28.14-.56.252-.84.36-.28.108-.56.216-.852.308-.296.08-.592.172-.888.236l-.244.044c-.232.052-.464.096-.7.132-.419.072-.841.121-1.264.148a6.097 6.097 0 0 1-.776.032h-.064l-27.04-.132-6.372-.032-42.472-.216a4.86 4.86 0 0 1-.468-.032c-.356 0-.7-.032-1.056-.06a13.24 13.24 0 0 0 11.644-12.328v-.668a13.197 13.197 0 0 0-10.572-12.952c-.312-.064-.624-.108-.948-.156.309-.036.62-.056.932-.06.109-.008.219-.008.328 0h.264l42.472.216 9.6.048h3.404l20.4.108c.669.002 1.338.055 2 .156 1.69.277 3.31.879 4.772 1.772.188.108.356.232.528.34.518.355 1.011.745 1.476 1.168.156.14.296.28.452.436a13.507 13.507 0 0 1 2.8 4.164l.236.608c.079.197.145.399.2.604.399 1.276.601 2.606.6 3.944Z"/><path stroke="#0E233C" stroke-linecap="square" stroke-linejoin="round" stroke-width="2.2" d="M275.25 347.622c.002.437-.019.873-.064 1.308v.092c-.032.204-.06.4-.092.592a.678.678 0 0 1-.032.172 5.48 5.48 0 0 1-.124.684 16.423 16.423 0 0 1-.636 2.08c-.08.14-.128.28-.188.4a7.92 7.92 0 0 1-.4.824 6.078 6.078 0 0 1-.484.8 5.289 5.289 0 0 1-.4.624 5.445 5.445 0 0 1-.248.328 5.963 5.963 0 0 1-.464.588 9.211 9.211 0 0 1-.7.764c-.298.294-.61.573-.936.836a13.119 13.119 0 0 1-7.672 3.032h-54.676a16.54 16.54 0 0 1-1.524-.076c.335-.04.667-.097.996-.172a.122.122 0 0 0 .08 0h.028a13.223 13.223 0 0 0 6.656-3.6l.032-.032a13.148 13.148 0 0 0 3.792-8.752v-.516a13.201 13.201 0 0 0-11.6-13c.344-.044.684-.06 1.028-.076a.732.732 0 0 1 .264 0 .025.025 0 0 1 .032 0 .836.836 0 0 1 .2 0h53.992c.376 0 .732 0 1.092.048h.124a.18.18 0 0 0 .092 0h.064l.636.092c.44.065.876.158 1.304.28.156.032.328.076.484.124a13.586 13.586 0 0 1 2.456 1.028c.376.2.739.423 1.088.668.232.156.452.308.668.48.216.172.512.4.764.624.252.224.4.4.588.572.236.252.468.5.684.764.064.06.108.124.156.172l.328.42c.374.511.716 1.045 1.024 1.6.302.569.569 1.155.8 1.756.367 1.019.613 2.079.732 3.156 0 .204.032.4.048.592v.14c.008.18.008.384.008.584Z"/><path stroke="#0E233C" stroke-linecap="square" stroke-linejoin="round" stroke-width="2.2" d="M285.232 379.399h-77.576c-1.729.046-3.454-.2-5.1-.728a8.946 8.946 0 0 1-.932-.4c-.296-.156-.56-.312-.824-.468-.264-.156-.496-.356-.732-.544-.232-.204-.448-.4-.652-.608a9.264 9.264 0 0 1-2.3-3.808 8.997 8.997 0 0 1-.42-2.768 8.065 8.065 0 0 1 .064-1.088 7.68 7.68 0 0 1 .324-1.492 7.56 7.56 0 0 1 .996-2.16c.253-.433.555-.836.9-1.2.212-.236.436-.461.672-.672 1.896-1.692 4.648-2.736 8.052-2.736h77.528-.684a.51.51 0 0 0-.156 0h-.048a.025.025 0 0 0 .032 0 .28.28 0 0 0 .108 0h.08c-.172.032-.344.048-.516.092h-.1a9.364 9.364 0 0 0-7.54 9.156 9.39 9.39 0 0 0 8.224 9.268c-.38.144-.736.156.6.156Z"/><path stroke="#0E233C" stroke-linecap="square" stroke-linejoin="round" stroke-width="2.2" d="M284.6 379.354c-.356.032-.712.044-1.072.044h-53.572a9.294 9.294 0 0 1-6.576-2.736 9.274 9.274 0 0 1-2.3-3.808 9.043 9.043 0 0 1-.4-2.768 9.345 9.345 0 0 1 9.312-9.328h53.536c.264 0 .544 0 .8.032a.47.47 0 0 0 .14 0h.08c-.172.032-.344.048-.516.092h-.092a9.367 9.367 0 0 0-7.54 9.156 9.39 9.39 0 0 0 8.224 9.268l-.024.048Z"/><path stroke="#0E233C" stroke-linecap="square" stroke-linejoin="round" stroke-width="2.2" d="M220.645 370.086a9.315 9.315 0 0 0 9.312 9.312h-22.308c-4.26 0-6.592-1.04-8.288-2.736a9.26 9.26 0 0 1-2.72-6.576c0-5.128 4.184-9.328 11.008-9.328h22.308a9.344 9.344 0 0 0-9.312 9.328ZM285.227 379.398h-1.696c.36 0 .716 0 1.072-.044-.356.032-.712.044.624.044ZM284.479 360.798c-.308 0-.636-.048-.948-.048h1.696c-1.184.008-1.044.048-.748.048Z"/><path fill="#fff" d="M52.008 344.31 24.24 273.174a9.333 9.333 0 0 1 4.962-10.654 9.35 9.35 0 0 1 4.094-.946h110.312c2.476 0 4.88.833 6.826 2.365a11.039 11.039 0 0 1 3.898 6.083l30.4 71.128a9.346 9.346 0 0 1-5.005 10.581 9.328 9.328 0 0 1-4.075.935H62.7a11.02 11.02 0 0 1-10.692-8.356Z" opacity=".54"/><path fill="#0057FF" d="M52.008 344.31 24.24 273.174a9.333 9.333 0 0 1 4.962-10.654 9.35 9.35 0 0 1 4.094-.946h110.312c2.476 0 4.88.833 6.826 2.365a11.039 11.039 0 0 1 3.898 6.083l30.4 71.128a9.346 9.346 0 0 1-5.005 10.581 9.328 9.328 0 0 1-4.075.935H62.7a11.02 11.02 0 0 1-10.692-8.356Z"/><path stroke="#0E233C" stroke-linecap="square" stroke-linejoin="round" stroke-width="2.2" d="M52.008 344.31 24.24 273.174a9.333 9.333 0 0 1 4.962-10.654 9.35 9.35 0 0 1 4.094-.946h110.312c2.476 0 4.88.833 6.826 2.365a11.039 11.039 0 0 1 3.898 6.083l30.4 71.128a9.346 9.346 0 0 1-5.005 10.581 9.328 9.328 0 0 1-4.075.935H62.7a11.02 11.02 0 0 1-10.692-8.356Z"/><path fill="#0057FF" d="m56.061 341.43-25.6-65.628a8.614 8.614 0 0 1 8.344-10.704h101.752a10.172 10.172 0 0 1 9.892 7.796l28.044 65.6a8.615 8.615 0 0 1-8.376 10.628H65.933a10.18 10.18 0 0 1-9.872-7.692Z"/><path fill="#fff" d="M133.21 277.165c-1.348-2.028-3.552-2.928-4.928-2-1.376.928-1.396 3.3-.048 5.328.213.308.451.599.712.868l-10 21.108c-1.6-1.064-3.348-1.328-4.604-.488a3.438 3.438 0 0 0-1.404 2.54l-6.832-2.308-5.972-2-1.952-.64a8.78 8.78 0 0 0-1.012-2.076c-1.896-2.848-4.992-4.112-6.924-2.828-1.932 1.284-1.952 4.568-.108 7.396l-11.364 15.532c-2.48-2.036-5.404-2.664-7.428-1.32-2.752 1.836-2.8 6.616-.092 10.68.108.16.232.296.344.448l-7.588 10.368-.068.1a2.642 2.642 0 0 0 .662 3.778 2.644 2.644 0 0 0 3.738-.858l6.748-10.156c2.128 1.236 4.4 1.472 6.052.368 2.632-1.752 2.756-6.184.4-10.12l10.9-16.452c1.6 1.092 3.384 1.372 4.656.528a3.304 3.304 0 0 0 1.348-2.12l.8.228 6.076 1.66 7.776 2.096a8.552 8.552 0 0 0 1.16 2.616c1.892 2.844 4.992 4.112 6.924 2.828 1.932-1.284 1.956-4.632.064-7.476a8.883 8.883 0 0 0-.936-1.164l9.516-21.516c1.148.8 2.4.98 3.324.376 1.396-.892 1.416-3.292.06-5.324Z"/><path fill="#CEE6FF" d="M60.806 278.331h-14.74a3.474 3.474 0 0 1-1.91-.563 3.472 3.472 0 0 1-1.29-1.517 1.559 1.559 0 0 1-.132-.604 1.53 1.53 0 0 1 1.524-1.512h15.676c-.728 1.244-.328 2.972.872 4.196Z"/><path fill="#0057FF" d="M70.353 276.819a1.52 1.52 0 0 1-1.516 1.512h-8.028c-1.224-1.224-1.6-2.952-.86-4.196h7.08a3.479 3.479 0 0 1 3.2 2.068c.082.195.124.404.124.616Z"/><path fill="#fff" d="M66.665 278.329a2.1 2.1 0 0 1-.145.232c-1.055 1.436-3.335 1.572-5.107.276a4.846 4.846 0 0 1-.596-.508c-1.224-1.224-1.6-2.952-.86-4.196.04-.082.088-.159.143-.232 1.044-1.444 3.325-1.568 5.096-.284.216.155.418.328.605.516 1.215 1.228 1.591 2.94.864 4.196Z"/><path fill="#0057FF" d="M74.063 286.075a1.523 1.523 0 0 1-1.524 1.512H57.063c.748-1.256.376-2.968-.852-4.196h14.536a3.473 3.473 0 0 1 3.2 2.08c.078.191.118.396.116.604Z"/><path fill="#CEE6FF" d="M57.057 287.598h-7.28a3.479 3.479 0 0 1-3.2-2.068 1.502 1.502 0 0 1 .308-1.685 1.505 1.505 0 0 1 1.072-.443h8.248c1.228 1.216 1.6 2.928.852 4.196Z"/><path fill="#fff" d="M57.061 287.598a.98.98 0 0 1-.132.232c-1.044 1.448-3.328 1.572-5.1.288a5.335 5.335 0 0 1-.62-.52c-1.2-1.224-1.6-2.94-.86-4.196.04-.081.088-.157.144-.228 1.052-1.44 3.332-1.572 5.108-.28.21.155.408.324.592.508 1.244 1.216 1.616 2.928.868 4.196Z"/><path fill="#0057FF" d="M62.213 296.798H52.95a3.49 3.49 0 0 1-3.2-2.072 1.559 1.559 0 0 1-.132-.604 1.53 1.53 0 0 1 1.524-1.524h10.192c-.712 1.236-.336 2.952.88 4.2Z"/><path fill="#CEE6FF" d="M77.234 295.274a1.511 1.511 0 0 1-1.516 1.504h-13.5c-1.2-1.228-1.6-2.944-.864-4.2h12.564a3.467 3.467 0 0 1 3.18 2.08c.087.194.133.404.136.616Z"/><path fill="#fff" d="M68.062 296.799c-.039.081-.087.157-.144.228-1.044 1.448-3.324 1.572-5.096.288a6.045 6.045 0 0 1-.604-.516c-1.2-1.228-1.6-2.944-.864-4.2.042-.08.09-.156.144-.228 1.056-1.436 3.336-1.564 5.108-.28.21.155.41.325.596.508 1.208 1.208 1.608 2.932.86 4.2Z"/><path fill="#0057FF" d="M122.112 340.134h-9.268a3.499 3.499 0 0 1-3.2-2.072 1.487 1.487 0 0 1-.136-.604 1.527 1.527 0 0 1 1.524-1.524h10.196c-.708 1.264-.332 2.972.884 4.2Z"/><path fill="#CEE6FF" d="M158.897 338.63c-.001.198-.04.394-.117.576a1.498 1.498 0 0 1-.818.814 1.503 1.503 0 0 1-.577.114h-35.268c-1.2-1.228-1.6-2.944-.864-4.2h34.328a3.465 3.465 0 0 1 3.18 2.08c.087.194.133.403.136.616Z"/><path fill="#fff" d="M127.961 340.135a1.233 1.233 0 0 1-.144.228c-1.044 1.448-3.324 1.572-5.096.288a5.501 5.501 0 0 1-.604-.516c-1.2-1.228-1.6-2.944-.864-4.2.042-.08.09-.156.144-.228 1.056-1.436 3.336-1.564 5.108-.28.21.155.409.325.596.508 1.224 1.228 1.6 2.952.86 4.2Z"/></svg>