<svg width="42" height="44" viewBox="0 0 42 44" fill="none" xmlns="http://www.w3.org/2000/svg">
<path d="M0.01693 15.9849V17.5505V38.9704C0.01693 40.3367 0.957128 40.6783 1.42723 40.6783H35.9795C37.1642 40.6783 37.4133 39.5397 37.3898 38.9704V15.9849C37.3898 14.7325 36.7317 13.8026 36.4026 13.4942C31.3961 9.50915 21.1291 1.32546 20.1137 0.47151C19.0983 -0.38244 17.9512 0.115697 17.5046 0.47151C12.4511 4.48033 2.09007 12.6972 1.07465 13.4942C0.059239 14.2913 -0.0535849 15.4868 0.01693 15.9849Z" fill="#6425FE"/>
<path d="M7.77387 20.7528C3.76862 21.7776 4.17761 30.9528 4.88276 35.4123C5.95458 35.8677 9.70128 36.0765 11.4406 36.1239C14.3553 36.3374 20.1422 35.6827 19.9729 31.356C19.8037 27.0294 15.7656 26.517 13.7676 26.8016C13.4856 20.5393 9.65427 20.1598 7.77387 20.7528Z" fill="white"/>
<path d="M30.4348 39.767C30.4409 39.7674 30.447 39.7679 30.453 39.7684C35.4584 40.1696 36.784 35.7021 36.9401 33.3765C36.9413 33.217 36.9467 33.0607 36.9566 32.9082C36.9566 33.0513 36.9514 33.2083 36.9401 33.3765C36.9155 36.6946 38.716 41.4136 40 43C37.3155 42.1708 32.791 39.9632 30.453 39.7684C30.447 39.768 30.4409 39.7675 30.4348 39.767Z" fill="#6425FE" stroke="#6425FE" stroke-linecap="round"/>
</svg>
